<svg width="180" height="180" viewBox="0 0 180 180" fill="none" xmlns="http://www.w3.org/2000/svg">
<rect width="180" height="180" rx="24" fill="url(#paint0_radial_348_4723)"/>
<path d="M144.831 87.8556L109.225 46.9742C107.957 45.5174 105.747 45.365 104.29 46.6338L63.4087 82.2397C61.9518 83.5086 61.7994 85.7182 63.0683 87.175L98.6742 128.056C99.943 129.513 102.153 129.666 103.609 128.397L144.491 92.791C145.948 91.5221 146.1 89.3125 144.831 87.8556Z" fill="#A782F9" stroke="white" stroke-width="1.23462"/>
<path d="M124.262 73.3799L74.9903 50.7665C73.2344 49.9606 71.1578 50.7308 70.3519 52.4866L47.7385 101.758C46.9327 103.514 47.7028 105.591 49.4586 106.397L98.7304 129.01C100.486 129.816 102.563 129.046 103.369 127.29L125.982 78.0183C126.788 76.2624 126.018 74.1858 124.262 73.3799Z" fill="#E75955" stroke="white" stroke-width="1.23462"/>
<path d="M41.639 126.183L41.9251 71.9703C41.9353 70.0384 43.5097 68.4806 45.4416 68.4908L99.6541 68.7769C101.586 68.7871 103.144 70.3615 103.134 72.2934L102.848 126.506C102.837 128.438 101.263 129.996 99.331 129.985L45.1186 129.699C43.1867 129.689 41.6288 128.115 41.639 126.183Z" fill="#FFC938" stroke="white" stroke-width="1.23462"/>
<defs>
<radialGradient id="paint0_radial_348_4723" cx="0" cy="0" r="1" gradientUnits="userSpaceOnUse" gradientTransform="translate(90 90) rotate(90) scale(90)">
<stop stop-color="#555555"/>
<stop offset="1" stop-color="#2E2E2E"/>
</radialGradient>
</defs>
</svg>
