<svg width="180" height="180" viewBox="0 0 180 180" fill="none" xmlns="http://www.w3.org/2000/svg">
<rect x="1" y="1" width="178" height="178" rx="23" stroke="black" stroke-width="2"/>
<path d="M70.6552 21H65.1379V26.5172H70.6552V21Z" fill="#A782F9"/>
<path d="M76.1725 21H70.6553V26.5172H76.1725V21Z" fill="#A782F9"/>
<path d="M87.2069 21H81.6897V26.5172H87.2069V21Z" fill="#A782F9"/>
<path d="M98.2414 21H92.7241V26.5172H98.2414V21Z" fill="#A782F9"/>
<path d="M103.759 21H98.2415V26.5172H103.759V21Z" fill="#A782F9"/>
<path d="M70.6552 26.5172H65.1379V32.0345H70.6552V26.5172Z" fill="#A782F9"/>
<path d="M81.6896 26.5172H76.1724V32.0345H81.6896V26.5172Z" fill="#A782F9"/>
<path d="M87.2069 26.5172H81.6897V32.0345H87.2069V26.5172Z" fill="#A782F9"/>
<path d="M103.759 26.5172H98.2415V32.0345H103.759V26.5172Z" fill="#A782F9"/>
<path d="M70.6552 32.0345H65.1379V37.5517H70.6552V32.0345Z" fill="#A782F9"/>
<path d="M76.1725 32.0345H70.6553V37.5517H76.1725V32.0345Z" fill="#A782F9"/>
<path d="M92.724 32.0345H87.2068V37.5517H92.724V32.0345Z" fill="#A782F9"/>
<path d="M98.2414 32.0345H92.7241V37.5517H98.2414V32.0345Z" fill="#A782F9"/>
<path d="M103.759 32.0345H98.2415V37.5517H103.759V32.0345Z" fill="#A782F9"/>
<path d="M114.793 32.0345H109.276V37.5517H114.793V32.0345Z" fill="#A782F9"/>
<path d="M76.1725 37.5517H70.6553V43.0689H76.1725V37.5517Z" fill="#A782F9"/>
<path d="M92.724 37.5517H87.2068V43.0689H92.724V37.5517Z" fill="#A782F9"/>
<path d="M98.2414 37.5517H92.7241V43.0689H98.2414V37.5517Z" fill="#A782F9"/>
<path d="M70.6552 43.069H65.1379V48.5862H70.6552V43.069Z" fill="#A782F9"/>
<path d="M81.6896 43.069H76.1724V48.5862H81.6896V43.069Z" fill="#A782F9"/>
<path d="M103.759 43.069H98.2415V48.5862H103.759V43.069Z" fill="#A782F9"/>
<path d="M114.793 43.069H109.276V48.5862H114.793V43.069Z" fill="#A782F9"/>
<path d="M76.1725 48.5862H70.6553V54.1034H76.1725V48.5862Z" fill="#A782F9"/>
<path d="M81.6896 48.5862H76.1724V54.1034H81.6896V48.5862Z" fill="#A782F9"/>
<path d="M87.2069 48.5862H81.6897V54.1034H87.2069V48.5862Z" fill="#A782F9"/>
<path d="M103.759 48.5862H98.2415V54.1034H103.759V48.5862Z" fill="#A782F9"/>
<path d="M70.6552 54.1035H65.1379V59.6207H70.6552V54.1035Z" fill="#A782F9"/>
<path d="M81.6896 54.1035H76.1724V59.6207H81.6896V54.1035Z" fill="#A782F9"/>
<path d="M92.724 54.1035H87.2068V59.6207H92.724V54.1035Z" fill="#A782F9"/>
<path d="M103.759 54.1035H98.2415V59.6207H103.759V54.1035Z" fill="#A782F9"/>
<path d="M114.793 54.1035H109.276V59.6207H114.793V54.1035Z" fill="#A782F9"/>
<path d="M76.1725 59.6207H70.6553V65.1379H76.1725V59.6207Z" fill="#A782F9"/>
<path d="M87.2069 59.6207H81.6897V65.1379H87.2069V59.6207Z" fill="#A782F9"/>
<path d="M98.2414 59.6207H92.7241V65.1379H98.2414V59.6207Z" fill="#A782F9"/>
<path d="M114.793 59.6207H109.276V65.1379H114.793V59.6207Z" fill="#A782F9"/>
<path d="M26.5172 65.1379H21V70.6552H26.5172V65.1379Z" fill="#A782F9"/>
<path d="M43.069 65.1379H37.5518V70.6552H43.069V65.1379Z" fill="#A782F9"/>
<path d="M48.5861 65.1379H43.0688V70.6552H48.5861V65.1379Z" fill="#A782F9"/>
<path d="M54.1034 65.1379H48.5862V70.6552H54.1034V65.1379Z" fill="#A782F9"/>
<path d="M59.6208 65.1379H54.1035V70.6552H59.6208V65.1379Z" fill="#A782F9"/>
<path d="M65.1378 65.1379H59.6206V70.6552H65.1378V65.1379Z" fill="#A782F9"/>
<path d="M70.6552 65.1379H65.1379V70.6552H70.6552V65.1379Z" fill="#A782F9"/>
<path d="M76.1725 65.1379H70.6553V70.6552H76.1725V65.1379Z" fill="#A782F9"/>
<path d="M87.2069 65.1379H81.6897V70.6552H87.2069V65.1379Z" fill="#A782F9"/>
<path d="M92.724 65.1379H87.2068V70.6552H92.724V65.1379Z" fill="#A782F9"/>
<path d="M103.759 65.1379H98.2415V70.6552H103.759V65.1379Z" fill="#A782F9"/>
<path d="M109.276 65.1379H103.759V70.6552H109.276V65.1379Z" fill="#A782F9"/>
<path d="M114.793 65.1379H109.276V70.6552H114.793V65.1379Z" fill="#A782F9"/>
<path d="M120.31 65.1379H114.793V70.6552H120.31V65.1379Z" fill="#A782F9"/>
<path d="M136.862 65.1379H131.345V70.6552H136.862V65.1379Z" fill="#A782F9"/>
<path d="M147.897 65.1379H142.379V70.6552H147.897V65.1379Z" fill="#A782F9"/>
<path d="M153.414 65.1379H147.896V70.6552H153.414V65.1379Z" fill="#A782F9"/>
<path d="M158.931 65.1379H153.414V70.6552H158.931V65.1379Z" fill="#A782F9"/>
<path d="M32.0346 70.6552H26.5173V76.1724H32.0346V70.6552Z" fill="#A782F9"/>
<path d="M37.5517 70.6552H32.0344V76.1724H37.5517V70.6552Z" fill="#A782F9"/>
<path d="M54.1034 70.6552H48.5862V76.1724H54.1034V70.6552Z" fill="#A782F9"/>
<path d="M76.1725 70.6552H70.6553V76.1724H76.1725V70.6552Z" fill="#A782F9"/>
<path d="M81.6896 70.6552H76.1724V76.1724H81.6896V70.6552Z" fill="#A782F9"/>
<path d="M92.724 70.6552H87.2068V76.1724H92.724V70.6552Z" fill="#A782F9"/>
<path d="M98.2414 70.6552H92.7241V76.1724H98.2414V70.6552Z" fill="#A782F9"/>
<path d="M103.759 70.6552H98.2415V76.1724H103.759V70.6552Z" fill="#A782F9"/>
<path d="M109.276 70.6552H103.759V76.1724H109.276V70.6552Z" fill="#A782F9"/>
<path d="M120.31 70.6552H114.793V76.1724H120.31V70.6552Z" fill="#A782F9"/>
<path d="M131.345 70.6552H125.828V76.1724H131.345V70.6552Z" fill="#A782F9"/>
<path d="M136.862 70.6552H131.345V76.1724H136.862V70.6552Z" fill="#A782F9"/>
<path d="M142.379 70.6552H136.862V76.1724H142.379V70.6552Z" fill="#A782F9"/>
<path d="M147.897 70.6552H142.379V76.1724H147.897V70.6552Z" fill="#A782F9"/>
<path d="M153.414 70.6552H147.896V76.1724H153.414V70.6552Z" fill="#A782F9"/>
<path d="M26.5172 76.1724H21V81.6897H26.5172V76.1724Z" fill="#A782F9"/>
<path d="M37.5517 76.1724H32.0344V81.6897H37.5517V76.1724Z" fill="#A782F9"/>
<path d="M43.069 76.1724H37.5518V81.6897H43.069V76.1724Z" fill="#A782F9"/>
<path d="M59.6208 76.1724H54.1035V81.6897H59.6208V76.1724Z" fill="#A782F9"/>
<path d="M65.1378 76.1724H59.6206V81.6897H65.1378V76.1724Z" fill="#A782F9"/>
<path d="M70.6552 76.1724H65.1379V81.6897H70.6552V76.1724Z" fill="#A782F9"/>
<path d="M81.6896 76.1724H76.1724V81.6897H81.6896V76.1724Z" fill="#A782F9"/>
<path d="M92.724 76.1724H87.2068V81.6897H92.724V76.1724Z" fill="#A782F9"/>
<path d="M109.276 76.1724H103.759V81.6897H109.276V76.1724Z" fill="#A782F9"/>
<path d="M125.828 76.1724H120.31V81.6897H125.828V76.1724Z" fill="#A782F9"/>
<path d="M131.345 76.1724H125.828V81.6897H131.345V76.1724Z" fill="#A782F9"/>
<path d="M136.862 76.1724H131.345V81.6897H136.862V76.1724Z" fill="#A782F9"/>
<path d="M142.379 76.1724H136.862V81.6897H142.379V76.1724Z" fill="#A782F9"/>
<path d="M158.931 76.1724H153.414V81.6897H158.931V76.1724Z" fill="#A782F9"/>
<path d="M26.5172 81.6896H21V87.2069H26.5172V81.6896Z" fill="#A782F9"/>
<path d="M37.5517 81.6896H32.0344V87.2069H37.5517V81.6896Z" fill="#A782F9"/>
<path d="M43.069 81.6896H37.5518V87.2069H43.069V81.6896Z" fill="#A782F9"/>
<path d="M48.5861 81.6896H43.0688V87.2069H48.5861V81.6896Z" fill="#A782F9"/>
<path d="M54.1034 81.6896H48.5862V87.2069H54.1034V81.6896Z" fill="#A782F9"/>
<path d="M76.1725 81.6896H70.6553V87.2069H76.1725V81.6896Z" fill="#A782F9"/>
<path d="M81.6896 81.6896H76.1724V87.2069H81.6896V81.6896Z" fill="#A782F9"/>
<path d="M87.2069 81.6896H81.6897V87.2069H87.2069V81.6896Z" fill="#A782F9"/>
<path d="M92.724 81.6896H87.2068V87.2069H92.724V81.6896Z" fill="#A782F9"/>
<path d="M109.276 81.6896H103.759V87.2069H109.276V81.6896Z" fill="#A782F9"/>
<path d="M125.828 81.6896H120.31V87.2069H125.828V81.6896Z" fill="#A782F9"/>
<path d="M136.862 81.6896H131.345V87.2069H136.862V81.6896Z" fill="#A782F9"/>
<path d="M142.379 81.6896H136.862V87.2069H142.379V81.6896Z" fill="#A782F9"/>
<path d="M147.897 81.6896H142.379V87.2069H147.897V81.6896Z" fill="#A782F9"/>
<path d="M153.414 81.6896H147.896V87.2069H153.414V81.6896Z" fill="#A782F9"/>
<path d="M158.931 81.6896H153.414V87.2069H158.931V81.6896Z" fill="#A782F9"/>
<path d="M32.0346 87.2069H26.5173V92.7242H32.0346V87.2069Z" fill="#A782F9"/>
<path d="M37.5517 87.2069H32.0344V92.7242H37.5517V87.2069Z" fill="#A782F9"/>
<path d="M48.5861 87.2069H43.0688V92.7242H48.5861V87.2069Z" fill="#A782F9"/>
<path d="M59.6208 87.2069H54.1035V92.7242H59.6208V87.2069Z" fill="#A782F9"/>
<path d="M65.1378 87.2069H59.6206V92.7242H65.1378V87.2069Z" fill="#A782F9"/>
<path d="M76.1725 87.2069H70.6553V92.7242H76.1725V87.2069Z" fill="#A782F9"/>
<path d="M92.724 87.2069H87.2068V92.7242H92.724V87.2069Z" fill="#A782F9"/>
<path d="M103.759 87.2069H98.2415V92.7242H103.759V87.2069Z" fill="#A782F9"/>
<path d="M109.276 87.2069H103.759V92.7242H109.276V87.2069Z" fill="#A782F9"/>
<path d="M125.828 87.2069H120.31V92.7242H125.828V87.2069Z" fill="#A782F9"/>
<path d="M158.931 87.2069H153.414V92.7242H158.931V87.2069Z" fill="#A782F9"/>
<path d="M26.5172 92.7241H21V98.2414H26.5172V92.7241Z" fill="#A782F9"/>
<path d="M37.5517 92.7241H32.0344V98.2414H37.5517V92.7241Z" fill="#A782F9"/>
<path d="M43.069 92.7241H37.5518V98.2414H43.069V92.7241Z" fill="#A782F9"/>
<path d="M48.5861 92.7241H43.0688V98.2414H48.5861V92.7241Z" fill="#A782F9"/>
<path d="M103.759 92.7241H98.2415V98.2414H103.759V92.7241Z" fill="#A782F9"/>
<path d="M109.276 92.7241H103.759V98.2414H109.276V92.7241Z" fill="#A782F9"/>
<path d="M114.793 92.7241H109.276V98.2414H114.793V92.7241Z" fill="#A782F9"/>
<path d="M120.31 92.7241H114.793V98.2414H120.31V92.7241Z" fill="#A782F9"/>
<path d="M136.862 92.7241H131.345V98.2414H136.862V92.7241Z" fill="#A782F9"/>
<path d="M153.414 92.7241H147.896V98.2414H153.414V92.7241Z" fill="#A782F9"/>
<path d="M26.5172 98.2414H21V103.759H26.5172V98.2414Z" fill="#A782F9"/>
<path d="M32.0346 98.2414H26.5173V103.759H32.0346V98.2414Z" fill="#A782F9"/>
<path d="M37.5517 98.2414H32.0344V103.759H37.5517V98.2414Z" fill="#A782F9"/>
<path d="M43.069 98.2414H37.5518V103.759H43.069V98.2414Z" fill="#A782F9"/>
<path d="M59.6208 98.2414H54.1035V103.759H59.6208V98.2414Z" fill="#A782F9"/>
<path d="M65.1378 98.2414H59.6206V103.759H65.1378V98.2414Z" fill="#A782F9"/>
<path d="M70.6552 98.2414H65.1379V103.759H70.6552V98.2414Z" fill="#A782F9"/>
<path d="M81.6896 98.2414H76.1724V103.759H81.6896V98.2414Z" fill="#A782F9"/>
<path d="M87.2069 98.2414H81.6897V103.759H87.2069V98.2414Z" fill="#A782F9"/>
<path d="M92.724 98.2414H87.2068V103.759H92.724V98.2414Z" fill="#A782F9"/>
<path d="M103.759 98.2414H98.2415V103.759H103.759V98.2414Z" fill="#A782F9"/>
<path d="M109.276 98.2414H103.759V103.759H109.276V98.2414Z" fill="#A782F9"/>
<path d="M114.793 98.2414H109.276V103.759H114.793V98.2414Z" fill="#A782F9"/>
<path d="M125.828 98.2414H120.31V103.759H125.828V98.2414Z" fill="#A782F9"/>
<path d="M136.862 98.2414H131.345V103.759H136.862V98.2414Z" fill="#A782F9"/>
<path d="M142.379 98.2414H136.862V103.759H142.379V98.2414Z" fill="#A782F9"/>
<path d="M147.897 98.2414H142.379V103.759H147.897V98.2414Z" fill="#A782F9"/>
<path d="M153.414 98.2414H147.896V103.759H153.414V98.2414Z" fill="#A782F9"/>
<path d="M158.931 98.2414H153.414V103.759H158.931V98.2414Z" fill="#A782F9"/>
<path d="M26.5172 103.759H21V109.276H26.5172V103.759Z" fill="#A782F9"/>
<path d="M37.5517 103.759H32.0344V109.276H37.5517V103.759Z" fill="#A782F9"/>
<path d="M43.069 103.759H37.5518V109.276H43.069V103.759Z" fill="#A782F9"/>
<path d="M54.1034 103.759H48.5862V109.276H54.1034V103.759Z" fill="#A782F9"/>
<path d="M76.1725 103.759H70.6553V109.276H76.1725V103.759Z" fill="#A782F9"/>
<path d="M81.6896 103.759H76.1724V109.276H81.6896V103.759Z" fill="#A782F9"/>
<path d="M87.2069 103.759H81.6897V109.276H87.2069V103.759Z" fill="#A782F9"/>
<path d="M103.759 103.759H98.2415V109.276H103.759V103.759Z" fill="#A782F9"/>
<path d="M109.276 103.759H103.759V109.276H109.276V103.759Z" fill="#A782F9"/>
<path d="M125.828 103.759H120.31V109.276H125.828V103.759Z" fill="#A782F9"/>
<path d="M131.345 103.759H125.828V109.276H131.345V103.759Z" fill="#A782F9"/>
<path d="M142.379 103.759H136.862V109.276H142.379V103.759Z" fill="#A782F9"/>
<path d="M147.897 103.759H142.379V109.276H147.897V103.759Z" fill="#A782F9"/>
<path d="M158.931 103.759H153.414V109.276H158.931V103.759Z" fill="#A782F9"/>
<path d="M26.5172 109.276H21V114.793H26.5172V109.276Z" fill="#A782F9"/>
<path d="M48.5861 109.276H43.0688V114.793H48.5861V109.276Z" fill="#A782F9"/>
<path d="M59.6208 109.276H54.1035V114.793H59.6208V109.276Z" fill="#A782F9"/>
<path d="M70.6552 109.276H65.1379V114.793H70.6552V109.276Z" fill="#A782F9"/>
<path d="M76.1725 109.276H70.6553V114.793H76.1725V109.276Z" fill="#A782F9"/>
<path d="M92.724 109.276H87.2068V114.793H92.724V109.276Z" fill="#A782F9"/>
<path d="M98.2414 109.276H92.7241V114.793H98.2414V109.276Z" fill="#A782F9"/>
<path d="M114.793 109.276H109.276V114.793H114.793V109.276Z" fill="#A782F9"/>
<path d="M120.31 109.276H114.793V114.793H120.31V109.276Z" fill="#A782F9"/>
<path d="M125.828 109.276H120.31V114.793H125.828V109.276Z" fill="#A782F9"/>
<path d="M131.345 109.276H125.828V114.793H131.345V109.276Z" fill="#A782F9"/>
<path d="M136.862 109.276H131.345V114.793H136.862V109.276Z" fill="#A782F9"/>
<path d="M147.897 109.276H142.379V114.793H147.897V109.276Z" fill="#A782F9"/>
<path d="M153.414 109.276H147.896V114.793H153.414V109.276Z" fill="#A782F9"/>
<path d="M70.6552 114.793H65.1379V120.31H70.6552V114.793Z" fill="#A782F9"/>
<path d="M76.1725 114.793H70.6553V120.31H76.1725V114.793Z" fill="#A782F9"/>
<path d="M81.6896 114.793H76.1724V120.31H81.6896V114.793Z" fill="#A782F9"/>
<path d="M87.2069 114.793H81.6897V120.31H87.2069V114.793Z" fill="#A782F9"/>
<path d="M92.724 114.793H87.2068V120.31H92.724V114.793Z" fill="#A782F9"/>
<path d="M114.793 114.793H109.276V120.31H114.793V114.793Z" fill="#A782F9"/>
<path d="M136.862 114.793H131.345V120.31H136.862V114.793Z" fill="#A782F9"/>
<path d="M147.897 114.793H142.379V120.31H147.897V114.793Z" fill="#A782F9"/>
<path d="M153.414 114.793H147.896V120.31H153.414V114.793Z" fill="#A782F9"/>
<path d="M70.6552 120.31H65.1379V125.828H70.6552V120.31Z" fill="#A782F9"/>
<path d="M76.1725 120.31H70.6553V125.828H76.1725V120.31Z" fill="#A782F9"/>
<path d="M81.6896 120.31H76.1724V125.828H81.6896V120.31Z" fill="#A782F9"/>
<path d="M87.2069 120.31H81.6897V125.828H87.2069V120.31Z" fill="#A782F9"/>
<path d="M98.2414 120.31H92.7241V125.828H98.2414V120.31Z" fill="#A782F9"/>
<path d="M103.759 120.31H98.2415V125.828H103.759V120.31Z" fill="#A782F9"/>
<path d="M114.793 120.31H109.276V125.828H114.793V120.31Z" fill="#A782F9"/>
<path d="M125.828 120.31H120.31V125.828H125.828V120.31Z" fill="#A782F9"/>
<path d="M136.862 120.31H131.345V125.828H136.862V120.31Z" fill="#A782F9"/>
<path d="M158.931 120.31H153.414V125.828H158.931V120.31Z" fill="#A782F9"/>
<path d="M70.6552 125.828H65.1379V131.345H70.6552V125.828Z" fill="#A782F9"/>
<path d="M87.2069 125.828H81.6897V131.345H87.2069V125.828Z" fill="#A782F9"/>
<path d="M98.2414 125.828H92.7241V131.345H98.2414V125.828Z" fill="#A782F9"/>
<path d="M114.793 125.828H109.276V131.345H114.793V125.828Z" fill="#A782F9"/>
<path d="M136.862 125.828H131.345V131.345H136.862V125.828Z" fill="#A782F9"/>
<path d="M153.414 125.828H147.896V131.345H153.414V125.828Z" fill="#A782F9"/>
<path d="M158.931 125.828H153.414V131.345H158.931V125.828Z" fill="#A782F9"/>
<path d="M70.6552 131.345H65.1379V136.862H70.6552V131.345Z" fill="#A782F9"/>
<path d="M76.1725 131.345H70.6553V136.862H76.1725V131.345Z" fill="#A782F9"/>
<path d="M81.6896 131.345H76.1724V136.862H81.6896V131.345Z" fill="#A782F9"/>
<path d="M87.2069 131.345H81.6897V136.862H87.2069V131.345Z" fill="#A782F9"/>
<path d="M92.724 131.345H87.2068V136.862H92.724V131.345Z" fill="#A782F9"/>
<path d="M103.759 131.345H98.2415V136.862H103.759V131.345Z" fill="#A782F9"/>
<path d="M109.276 131.345H103.759V136.862H109.276V131.345Z" fill="#A782F9"/>
<path d="M114.793 131.345H109.276V136.862H114.793V131.345Z" fill="#A782F9"/>
<path d="M120.31 131.345H114.793V136.862H120.31V131.345Z" fill="#A782F9"/>
<path d="M125.828 131.345H120.31V136.862H125.828V131.345Z" fill="#A782F9"/>
<path d="M131.345 131.345H125.828V136.862H131.345V131.345Z" fill="#A782F9"/>
<path d="M136.862 131.345H131.345V136.862H136.862V131.345Z" fill="#A782F9"/>
<path d="M70.6552 136.862H65.1379V142.379H70.6552V136.862Z" fill="#A782F9"/>
<path d="M81.6896 136.862H76.1724V142.379H81.6896V136.862Z" fill="#A782F9"/>
<path d="M87.2069 136.862H81.6897V142.379H87.2069V136.862Z" fill="#A782F9"/>
<path d="M92.724 136.862H87.2068V142.379H92.724V136.862Z" fill="#A782F9"/>
<path d="M120.31 136.862H114.793V142.379H120.31V136.862Z" fill="#A782F9"/>
<path d="M125.828 136.862H120.31V142.379H125.828V136.862Z" fill="#A782F9"/>
<path d="M153.414 136.862H147.896V142.379H153.414V136.862Z" fill="#A782F9"/>
<path d="M158.931 136.862H153.414V142.379H158.931V136.862Z" fill="#A782F9"/>
<path d="M76.1725 142.379H70.6553V147.897H76.1725V142.379Z" fill="#A782F9"/>
<path d="M87.2069 142.379H81.6897V147.897H87.2069V142.379Z" fill="#A782F9"/>
<path d="M92.724 142.379H87.2068V147.897H92.724V142.379Z" fill="#A782F9"/>
<path d="M103.759 142.379H98.2415V147.897H103.759V142.379Z" fill="#A782F9"/>
<path d="M109.276 142.379H103.759V147.897H109.276V142.379Z" fill="#A782F9"/>
<path d="M120.31 142.379H114.793V147.897H120.31V142.379Z" fill="#A782F9"/>
<path d="M136.862 142.379H131.345V147.897H136.862V142.379Z" fill="#A782F9"/>
<path d="M142.379 142.379H136.862V147.897H142.379V142.379Z" fill="#A782F9"/>
<path d="M147.897 142.379H142.379V147.897H147.897V142.379Z" fill="#A782F9"/>
<path d="M153.414 142.379H147.896V147.897H153.414V142.379Z" fill="#A782F9"/>
<path d="M158.931 142.379H153.414V147.897H158.931V142.379Z" fill="#A782F9"/>
<path d="M76.1725 147.897H70.6553V153.414H76.1725V147.897Z" fill="#A782F9"/>
<path d="M87.2069 147.897H81.6897V153.414H87.2069V147.897Z" fill="#A782F9"/>
<path d="M92.724 147.897H87.2068V153.414H92.724V147.897Z" fill="#A782F9"/>
<path d="M109.276 147.897H103.759V153.414H109.276V147.897Z" fill="#A782F9"/>
<path d="M125.828 147.897H120.31V153.414H125.828V147.897Z" fill="#A782F9"/>
<path d="M131.345 147.897H125.828V153.414H131.345V147.897Z" fill="#A782F9"/>
<path d="M136.862 147.897H131.345V153.414H136.862V147.897Z" fill="#A782F9"/>
<path d="M147.897 147.897H142.379V153.414H147.897V147.897Z" fill="#A782F9"/>
<path d="M153.414 147.897H147.896V153.414H153.414V147.897Z" fill="#A782F9"/>
<path d="M158.931 147.897H153.414V153.414H158.931V147.897Z" fill="#A782F9"/>
<path d="M70.6552 153.414H65.1379V158.931H70.6552V153.414Z" fill="#A782F9"/>
<path d="M76.1725 153.414H70.6553V158.931H76.1725V153.414Z" fill="#A782F9"/>
<path d="M81.6896 153.414H76.1724V158.931H81.6896V153.414Z" fill="#A782F9"/>
<path d="M87.2069 153.414H81.6897V158.931H87.2069V153.414Z" fill="#A782F9"/>
<path d="M114.793 153.414H109.276V158.931H114.793V153.414Z" fill="#A782F9"/>
<path d="M125.828 153.414H120.31V158.931H125.828V153.414Z" fill="#A782F9"/>
<path d="M142.379 153.414H136.862V158.931H142.379V153.414Z" fill="#A782F9"/>
<path d="M158.931 153.414H153.414V158.931H158.931V153.414Z" fill="#A782F9"/>
<path d="M53.8276 21H26.7931H21V26.7931V53.8276V59.6207H26.7931H53.8276H59.6207V53.8276V26.7931V21H53.8276ZM53.8276 53.8276H26.7931V26.7931H53.8276V53.8276Z" fill="#A782F9"/>
<path d="M153.138 21H126.103H120.31V26.7931V53.8276V59.6207H126.103H153.138H158.931V53.8276V26.7931V21H153.138ZM153.138 53.8276H126.103V26.7931H153.138V53.8276Z" fill="#A782F9"/>
<path d="M53.8276 120.31H26.7931H21V126.103V153.138V158.931H26.7931H53.8276H59.6207V153.138V126.103V120.31H53.8276ZM53.8276 153.138H26.7931V126.103H53.8276V153.138Z" fill="#A782F9"/>
<path d="M48.5861 32.0345H32.0344V48.5862H48.5861V32.0345Z" fill="#A782F9"/>
<path d="M147.896 32.0345H131.345V48.5862H147.896V32.0345Z" fill="#A782F9"/>
<path d="M48.5861 131.345H32.0344V147.897H48.5861V131.345Z" fill="#A782F9"/>
</svg>
