<svg width="33" height="31" viewBox="0 0 33 31" fill="none" xmlns="http://www.w3.org/2000/svg">
<path d="M20.8714 6.28108C21.4849 6.20438 22.0984 6.66453 22.0984 7.27809L24.0923 26.2208C24.169 26.8343 23.7089 27.4478 23.0953 27.4478L4.22934 29.4418C3.61578 29.5185 3.0023 29.0583 3.0023 28.4448L1.00837 9.57876C0.93166 8.9652 1.39181 8.35172 2.00537 8.35172L20.8714 6.28108Z" stroke="#ACACAC" stroke-width="1.536" stroke-linecap="round" stroke-linejoin="round"/>
<path d="M7.68055 11.4961C6.3001 11.6495 5.22647 12.8765 5.3798 14.3337C5.53321 15.7141 6.76025 16.7877 8.21741 16.6344C9.59786 16.481 10.6715 15.254 10.5182 13.7968C10.3648 12.3396 9.061 11.3427 7.68055 11.4961ZM14.6594 15.9441L10.9782 20.4689C10.8248 20.6223 10.5948 20.699 10.4414 20.5456L9.59778 19.8555C9.44437 19.702 9.13763 19.7788 9.06092 19.9322L5.07298 24.8404C4.91957 24.9938 4.91957 25.3006 5.14969 25.3773C5.07298 25.454 5.22639 25.454 5.3031 25.454L21.1782 23.7668C21.4082 23.7668 21.5616 23.5367 21.5616 23.3066C21.5616 23.2299 21.4849 23.1532 21.4849 23.0766L15.2729 15.8676C15.0429 15.7909 14.8128 15.7907 14.6594 15.9441Z" stroke="#ACACAC" stroke-width="1.536" stroke-linecap="round" stroke-linejoin="round"/>
<path d="M10.3647 7.43123L10.9016 2.59969C10.9783 1.98613 11.5152 1.52598 12.1286 1.60268L30.9946 3.59661C31.6082 3.67332 32.0683 4.21017 31.9916 4.82366L29.9977 23.6896C29.9977 24.2265 29.3841 24.6867 28.7707 24.6867L23.8624 24.1498" stroke="#ACACAC" stroke-width="1.536" stroke-linecap="round" stroke-linejoin="round"/>
<path d="M23.4789 20.2387L27.6969 20.6989C27.9269 20.6989 28.0803 20.5455 28.1571 20.3154C28.1571 20.2387 28.1571 20.162 28.0804 20.0854L23.4788 11.7261C23.4021 11.5727 23.0954 11.496 22.942 11.5727L22.6353 11.8794" stroke="#ACACAC" stroke-width="1.536" stroke-linecap="round" stroke-linejoin="round"/>
</svg>
