<svg width="24" height="24" viewBox="0 0 24 24" fill="none" xmlns="http://www.w3.org/2000/svg">
<path d="M12.7527 15.5515L18.4027 9.89146C18.4964 9.79849 18.5708 9.68789 18.6215 9.56603C18.6723 9.44417 18.6985 9.31347 18.6985 9.18146C18.6985 9.04944 18.6723 8.91874 18.6215 8.79688C18.5708 8.67502 18.4964 8.56442 18.4027 8.47146C18.2153 8.28521 17.9618 8.18066 17.6977 8.18066C17.4335 8.18066 17.18 8.28521 16.9927 8.47146L11.9927 13.4215L7.04266 8.47146C6.8553 8.28521 6.60184 8.18066 6.33766 8.18066C6.07347 8.18066 5.82002 8.28521 5.63266 8.47146C5.53817 8.56407 5.463 8.67452 5.4115 8.79639C5.36001 8.91827 5.33321 9.04915 5.33266 9.18146C5.33321 9.31376 5.36001 9.44465 5.4115 9.56652C5.463 9.6884 5.53817 9.79884 5.63266 9.89146L11.2827 15.5515C11.3763 15.653 11.49 15.734 11.6165 15.7894C11.743 15.8448 11.8796 15.8734 12.0177 15.8734C12.1558 15.8734 12.2924 15.8448 12.4189 15.7894C12.5454 15.734 12.659 15.653 12.7527 15.5515Z" fill="#FFC938"/>
</svg>
